<svg width="48" height="48" viewBox="0 0 48 48" fill="none" xmlns="http://www.w3.org/2000/svg">
<path d="M24 2.5C26.8234 2.5 29.6192 3.05611 32.2277 4.13659C34.8362 5.21707 37.2063 6.80075 39.2028 8.79721C41.1993 10.7937 42.7829 13.1638 43.8634 15.7723C44.9439 18.3808 45.5 21.1766 45.5 24C45.5 26.8234 44.9439 29.6192 43.8634 32.2277C42.7829 34.8362 41.1993 37.2063 39.2028 39.2028C37.2063 41.1993 34.8362 42.7829 32.2277 43.8634C29.6192 44.9439 26.8234 45.5 24 45.5C21.1766 45.5 18.3808 44.9439 15.7723 43.8634C13.1638 42.7829 10.7937 41.1993 8.7972 39.2028C6.80074 37.2063 5.21706 34.8362 4.13659 32.2277C3.05611 29.6192 2.5 26.8234 2.5 24C2.5 21.1766 3.05612 18.3808 4.13659 15.7723C5.21707 13.1638 6.80075 10.7937 8.79721 8.7972C10.7937 6.80074 13.1638 5.21706 15.7723 4.13658C18.3808 3.05611 21.1766 2.5 24 2.5L24 2.5Z" stroke="black" stroke-opacity="0.08" stroke-width="5"/>
</svg>
