<svg width="34" height="34" viewBox="0 0 34 34" fill="none" xmlns="http://www.w3.org/2000/svg">
<path d="M8.66765 23.6666C8.33802 23.6666 8.01579 23.7643 7.7417 23.9475C7.46762 24.1306 7.254 24.3909 7.12785 24.6954C7.00171 25 6.9687 25.3351 7.03301 25.6584C7.09732 25.9817 7.25606 26.2787 7.48914 26.5118C7.72223 26.7449 8.0192 26.9036 8.3425 26.9679C8.6658 27.0322 9.00092 26.9992 9.30546 26.8731C9.61 26.7469 9.8703 26.5333 10.0534 26.2592C10.2366 25.9851 10.3343 25.6629 10.3343 25.3333C10.3343 24.8912 10.1587 24.4673 9.84616 24.1547C9.5336 23.8422 9.10968 23.6666 8.66765 23.6666ZM28.7677 16.9999L30.8177 14.9499C31.754 14.0124 32.2799 12.7416 32.2799 11.4166C32.2799 10.0916 31.754 8.82076 30.8177 7.88325L26.101 3.18325C25.1635 2.24692 23.8927 1.72099 22.5677 1.72099C21.2427 1.72099 19.9718 2.24692 19.0343 3.18325L17.001 5.23325C16.9748 3.92458 16.4365 2.67835 15.5016 1.76219C14.5668 0.846025 13.3099 0.33299 12.001 0.333252H5.33432C4.00824 0.333252 2.73647 0.860036 1.79879 1.79772C0.861104 2.7354 0.33432 4.00717 0.33432 5.33325V28.6666C0.33432 29.9927 0.861104 31.2644 1.79879 32.2021C2.73647 33.1398 4.00824 33.6666 5.33432 33.6666H28.6677C29.9937 33.6666 31.2655 33.1398 32.2032 32.2021C33.1409 31.2644 33.6677 29.9927 33.6677 28.6666V21.9999C33.6679 20.691 33.1549 19.4341 32.2387 18.4993C31.3226 17.5644 30.0763 17.0261 28.7677 16.9999ZM13.6677 28.6666C13.6677 29.1086 13.4921 29.5325 13.1795 29.8451C12.8669 30.1577 12.443 30.3333 12.001 30.3333H5.33432C4.89229 30.3333 4.46837 30.1577 4.15581 29.8451C3.84325 29.5325 3.66765 29.1086 3.66765 28.6666V5.33325C3.66765 4.89122 3.84325 4.4673 4.15581 4.15474C4.46837 3.84218 4.89229 3.66659 5.33432 3.66659H12.001C12.443 3.66659 12.8669 3.84218 13.1795 4.15474C13.4921 4.4673 13.6677 4.89122 13.6677 5.33325V28.6666ZM17.001 9.93325L21.401 5.53325C21.7133 5.22283 22.1357 5.0486 22.576 5.0486C23.0163 5.0486 23.4387 5.22283 23.751 5.53325L28.4677 10.3333C28.7781 10.6455 28.9523 11.0679 28.9523 11.5083C28.9523 11.9486 28.7781 12.371 28.4677 12.6833L23.6677 17.4833L17.001 24.0666V9.93325ZM30.3343 28.6666C30.3343 29.1086 30.1587 29.5325 29.8462 29.8451C29.5336 30.1577 29.1097 30.3333 28.6677 30.3333H16.701C16.872 29.8393 16.9675 29.3224 16.9843 28.7999L25.451 20.3333H28.6677C29.1097 20.3333 29.5336 20.5088 29.8462 20.8214C30.1587 21.134 30.3343 21.5579 30.3343 21.9999V28.6666Z" fill="#CB1D1D" fill-opacity="0.7"/>
</svg>
