<svg width="32" height="34" viewBox="0 0 32 34" fill="none" xmlns="http://www.w3.org/2000/svg">
<path d="M15.1657 30.3333H5.16571C4.72368 30.3333 4.29976 30.1577 3.9872 29.8451C3.67464 29.5325 3.49904 29.1086 3.49904 28.6666V5.33325C3.49904 4.89122 3.67464 4.4673 3.9872 4.15474C4.29976 3.84218 4.72368 3.66659 5.16571 3.66659H13.499V8.66659C13.499 9.99267 14.0258 11.2644 14.9635 12.2021C15.9012 13.1398 17.173 13.6666 18.499 13.6666H23.499V21.9999C23.499 22.4419 23.6746 22.8659 23.9872 23.1784C24.2998 23.491 24.7237 23.6666 25.1657 23.6666C25.6077 23.6666 26.0317 23.491 26.3442 23.1784C26.6568 22.8659 26.8324 22.4419 26.8324 21.9999V11.9999C26.8324 11.9999 26.8324 11.9999 26.8324 11.8999C26.815 11.7468 26.7815 11.596 26.7324 11.4499V11.2999C26.6522 11.1286 26.5454 10.971 26.4157 10.8333L16.4157 0.833252C16.2779 0.703612 16.1204 0.59672 15.949 0.516585C15.8939 0.506934 15.8375 0.506934 15.7824 0.516585C15.6203 0.429924 15.4461 0.368122 15.2657 0.333252H5.16571C3.83963 0.333252 2.56786 0.860036 1.63018 1.79772C0.692495 2.7354 0.16571 4.00717 0.16571 5.33325V28.6666C0.16571 29.9927 0.692495 31.2644 1.63018 32.2021C2.56786 33.1398 3.83963 33.6666 5.16571 33.6666H15.1657C15.6077 33.6666 16.0317 33.491 16.3442 33.1784C16.6568 32.8659 16.8324 32.4419 16.8324 31.9999C16.8324 31.5579 16.6568 31.134 16.3442 30.8214C16.0317 30.5088 15.6077 30.3333 15.1657 30.3333ZM16.8324 6.01659L21.149 10.3333H18.499C18.057 10.3333 17.6331 10.1577 17.3205 9.8451C17.008 9.53254 16.8324 9.10861 16.8324 8.66659V6.01659ZM8.49904 20.3333H18.499C18.9411 20.3333 19.365 20.1577 19.6776 19.8451C19.9901 19.5325 20.1657 19.1086 20.1657 18.6666C20.1657 18.2246 19.9901 17.8006 19.6776 17.4881C19.365 17.1755 18.9411 16.9999 18.499 16.9999H8.49904C8.05702 16.9999 7.63309 17.1755 7.32053 17.4881C7.00797 17.8006 6.83238 18.2246 6.83238 18.6666C6.83238 19.1086 7.00797 19.5325 7.32053 19.8451C7.63309 20.1577 8.05702 20.3333 8.49904 20.3333ZM15.1657 23.6666H8.49904C8.05702 23.6666 7.63309 23.8422 7.32053 24.1547C7.00797 24.4673 6.83238 24.8912 6.83238 25.3333C6.83238 25.7753 7.00797 26.1992 7.32053 26.5118C7.63309 26.8243 8.05702 26.9999 8.49904 26.9999H15.1657C15.6077 26.9999 16.0317 26.8243 16.3442 26.5118C16.6568 26.1992 16.8324 25.7753 16.8324 25.3333C16.8324 24.8912 16.6568 24.4673 16.3442 24.1547C16.0317 23.8422 15.6077 23.6666 15.1657 23.6666ZM8.49904 13.6666H10.1657C10.6077 13.6666 11.0317 13.491 11.3442 13.1784C11.6568 12.8659 11.8324 12.4419 11.8324 11.9999C11.8324 11.5579 11.6568 11.134 11.3442 10.8214C11.0317 10.5088 10.6077 10.3333 10.1657 10.3333H8.49904C8.05702 10.3333 7.63309 10.5088 7.32053 10.8214C7.00797 11.134 6.83238 11.5579 6.83238 11.9999C6.83238 12.4419 7.00797 12.8659 7.32053 13.1784C7.63309 13.491 8.05702 13.6666 8.49904 13.6666ZM31.349 24.1499C31.1941 23.9937 31.0098 23.8697 30.8067 23.7851C30.6036 23.7005 30.3857 23.6569 30.1657 23.6569C29.9457 23.6569 29.7278 23.7005 29.5247 23.7851C29.3217 23.8697 29.1373 23.9937 28.9824 24.1499L23.499 29.6499L21.349 27.4833C21.1936 27.3279 21.0092 27.2046 20.8061 27.1205C20.6031 27.0364 20.3855 26.9931 20.1657 26.9931C19.9459 26.9931 19.7283 27.0364 19.5253 27.1205C19.3223 27.2046 19.1378 27.3279 18.9824 27.4833C18.827 27.6387 18.7037 27.8231 18.6196 28.0262C18.5355 28.2292 18.4922 28.4468 18.4922 28.6666C18.4922 28.8864 18.5355 29.104 18.6196 29.307C18.7037 29.51 18.827 29.6945 18.9824 29.8499L22.3157 33.1833C22.4706 33.3395 22.655 33.4635 22.8581 33.5481C23.0612 33.6327 23.279 33.6763 23.499 33.6763C23.7191 33.6763 23.9369 33.6327 24.14 33.5481C24.3431 33.4635 24.5274 33.3395 24.6824 33.1833L31.349 26.5166C31.5053 26.3616 31.6293 26.1773 31.7139 25.9742C31.7985 25.7711 31.842 25.5533 31.842 25.3333C31.842 25.1132 31.7985 24.8954 31.7139 24.6923C31.6293 24.4892 31.5053 24.3049 31.349 24.1499Z" fill="#CB1D1D" fill-opacity="0.7"/>
</svg>
