<svg width="40" height="40" viewBox="0 0 40 40" fill="none" xmlns="http://www.w3.org/2000/svg">
<path fill-rule="evenodd" clip-rule="evenodd" d="M33.27 1.26553C33.7654 1.25477 34.2581 1.34308 34.719 1.5253C35.1819 1.70829 35.6034 1.98228 35.9585 2.33105C36.3136 2.67981 36.5952 3.09627 36.7865 3.55579C36.9778 4.01531 37.075 4.50853 37.0724 5.00627L37.0722 5.02829L37.0721 5.02829C37.0071 9.10746 36.5788 15.8057 33.4059 21.5284C31.7984 24.4277 29.4768 27.0959 26.1493 29.0276C22.8246 30.9575 18.6144 32.0834 13.3324 32.0834C12.1818 32.0834 11.2491 31.1507 11.2491 30.0001C11.2491 28.8495 12.1818 27.9168 13.3324 27.9168C18.0121 27.9168 21.4737 26.9239 24.0574 25.424C26.6383 23.9258 28.4616 21.8531 29.7618 19.508C32.3 14.9301 32.8046 9.39422 32.8966 5.44096C19.3187 5.76314 13.1839 9.22075 10.244 13.4135C7.15032 17.8254 7.08239 23.6383 7.08239 30.0001V36.6668C7.08239 37.8174 6.14965 38.7501 4.99906 38.7501C3.84846 38.7501 2.91572 37.8174 2.91572 36.6668V30.0001C2.91572 29.9008 2.9157 29.8012 2.91569 29.7012C2.91459 23.7189 2.91328 16.6105 6.83245 11.0213C10.9379 5.16646 18.8549 1.53094 33.27 1.26553Z" fill="#CB1D1D" fill-opacity="0.7"/>
<path fill-rule="evenodd" clip-rule="evenodd" d="M20.3996 18.0747C20.5423 19.2164 19.7325 20.2576 18.5908 20.4003C12.5104 21.1604 9.75449 23.7472 8.43997 25.8833C7.75581 26.995 7.41362 28.0652 7.24363 28.8515C7.15898 29.2429 7.11847 29.5575 7.09922 29.762C7.08962 29.864 7.08539 29.9378 7.08357 29.979C7.08272 29.9983 7.0824 30.0103 7.08229 30.0148C7.07418 31.1585 6.14457 32.0831 4.99901 32.0831C3.84842 32.0831 2.91568 31.1503 2.91568 29.9997H4.99901C2.91568 29.9997 2.91568 29.9983 2.91568 29.9969L2.91569 29.9938L2.91571 29.987L2.91585 29.9705L2.91657 29.9263C2.9173 29.892 2.91862 29.8481 2.92097 29.795C2.92565 29.689 2.93445 29.5463 2.95089 29.3716C2.98372 29.0227 3.04738 28.543 3.17107 27.9709C3.41774 26.8301 3.90888 25.2961 4.89139 23.6995C6.91021 20.419 10.8209 17.1724 18.0739 16.2658C19.2157 16.1231 20.2569 16.933 20.3996 18.0747Z" fill="#CB1D1D" fill-opacity="0.7"/>
</svg>
