<svg width="28" height="28" viewBox="0 0 28 28" fill="none" xmlns="http://www.w3.org/2000/svg">
<path d="M16.6665 8.66675H17.9998C18.3535 8.66675 18.6926 8.52627 18.9426 8.27622C19.1927 8.02618 19.3332 7.68704 19.3332 7.33342C19.3332 6.97979 19.1927 6.64065 18.9426 6.39061C18.6926 6.14056 18.3535 6.00008 17.9998 6.00008H16.6665C16.3129 6.00008 15.9737 6.14056 15.7237 6.39061C15.4736 6.64065 15.3332 6.97979 15.3332 7.33342C15.3332 7.68704 15.4736 8.02618 15.7237 8.27622C15.9737 8.52627 16.3129 8.66675 16.6665 8.66675ZM16.6665 14.0001H17.9998C18.3535 14.0001 18.6926 13.8596 18.9426 13.6096C19.1927 13.3595 19.3332 13.0204 19.3332 12.6667C19.3332 12.3131 19.1927 11.974 18.9426 11.7239C18.6926 11.4739 18.3535 11.3334 17.9998 11.3334H16.6665C16.3129 11.3334 15.9737 11.4739 15.7237 11.7239C15.4736 11.974 15.3332 12.3131 15.3332 12.6667C15.3332 13.0204 15.4736 13.3595 15.7237 13.6096C15.9737 13.8596 16.3129 14.0001 16.6665 14.0001ZM9.99984 8.66675H11.3332C11.6868 8.66675 12.0259 8.52627 12.276 8.27622C12.526 8.02618 12.6665 7.68704 12.6665 7.33342C12.6665 6.97979 12.526 6.64065 12.276 6.39061C12.0259 6.14056 11.6868 6.00008 11.3332 6.00008H9.99984C9.64622 6.00008 9.30708 6.14056 9.05703 6.39061C8.80698 6.64065 8.6665 6.97979 8.6665 7.33342C8.6665 7.68704 8.80698 8.02618 9.05703 8.27622C9.30708 8.52627 9.64622 8.66675 9.99984 8.66675ZM9.99984 14.0001H11.3332C11.6868 14.0001 12.0259 13.8596 12.276 13.6096C12.526 13.3595 12.6665 13.0204 12.6665 12.6667C12.6665 12.3131 12.526 11.974 12.276 11.7239C12.0259 11.4739 11.6868 11.3334 11.3332 11.3334H9.99984C9.64622 11.3334 9.30708 11.4739 9.05703 11.7239C8.80698 11.974 8.6665 12.3131 8.6665 12.6667C8.6665 13.0204 8.80698 13.3595 9.05703 13.6096C9.30708 13.8596 9.64622 14.0001 9.99984 14.0001ZM25.9998 24.6667H24.6665V2.00008C24.6665 1.64646 24.526 1.30732 24.276 1.05727C24.0259 0.807224 23.6868 0.666748 23.3332 0.666748H4.6665C4.31288 0.666748 3.97374 0.807224 3.7237 1.05727C3.47365 1.30732 3.33317 1.64646 3.33317 2.00008V24.6667H1.99984C1.64622 24.6667 1.30708 24.8072 1.05703 25.0573C0.80698 25.3073 0.666504 25.6465 0.666504 26.0001C0.666504 26.3537 0.80698 26.6928 1.05703 26.9429C1.30708 27.1929 1.64622 27.3334 1.99984 27.3334H25.9998C26.3535 27.3334 26.6926 27.1929 26.9426 26.9429C27.1927 26.6928 27.3332 26.3537 27.3332 26.0001C27.3332 25.6465 27.1927 25.3073 26.9426 25.0573C26.6926 24.8072 26.3535 24.6667 25.9998 24.6667ZM15.3332 24.6667H12.6665V19.3334H15.3332V24.6667ZM21.9998 24.6667H17.9998V18.0001C17.9998 17.6465 17.8594 17.3073 17.6093 17.0573C17.3593 16.8072 17.0201 16.6667 16.6665 16.6667H11.3332C10.9795 16.6667 10.6404 16.8072 10.3904 17.0573C10.1403 17.3073 9.99984 17.6465 9.99984 18.0001V24.6667H5.99984V3.33341H21.9998V24.6667Z" fill="#CB1D1D"/>
</svg>
