<svg width="28" height="28" viewBox="0 0 28 28" fill="none" xmlns="http://www.w3.org/2000/svg">
<path d="M5.51984 20.6667L4.57317 21.6134C4.32484 21.8632 4.18545 22.2012 4.18545 22.5534C4.18545 22.9057 4.32484 23.2436 4.57317 23.4934C4.82299 23.7418 5.16092 23.8811 5.51317 23.8811C5.86542 23.8811 6.20335 23.7418 6.45317 23.4934L7.39984 22.5467C7.61827 22.2917 7.73241 21.9636 7.71945 21.628C7.70649 21.2924 7.56738 20.9741 7.32992 20.7367C7.09246 20.4992 6.77414 20.3601 6.43858 20.3471C6.10301 20.3342 5.77491 20.4483 5.51984 20.6667ZM4.6665 14.0001C4.6665 13.6465 4.52603 13.3073 4.27598 13.0573C4.02593 12.8072 3.68679 12.6667 3.33317 12.6667H1.99984C1.64622 12.6667 1.30708 12.8072 1.05703 13.0573C0.80698 13.3073 0.666504 13.6465 0.666504 14.0001C0.666504 14.3537 0.80698 14.6928 1.05703 14.9429C1.30708 15.1929 1.64622 15.3334 1.99984 15.3334H3.33317C3.68679 15.3334 4.02593 15.1929 4.27598 14.9429C4.52603 14.6928 4.6665 14.3537 4.6665 14.0001ZM13.9998 4.66675C14.3535 4.66675 14.6926 4.52627 14.9426 4.27622C15.1927 4.02618 15.3332 3.68704 15.3332 3.33341V2.00008C15.3332 1.64646 15.1927 1.30732 14.9426 1.05727C14.6926 0.807224 14.3535 0.666748 13.9998 0.666748C13.6462 0.666748 13.3071 0.807224 13.057 1.05727C12.807 1.30732 12.6665 1.64646 12.6665 2.00008V3.33341C12.6665 3.68704 12.807 4.02618 13.057 4.27622C13.3071 4.52627 13.6462 4.66675 13.9998 4.66675ZM5.51984 7.40008C5.76818 7.64641 6.10338 7.78528 6.45317 7.78675C6.62865 7.78776 6.8026 7.75413 6.96505 7.68778C7.1275 7.62142 7.27525 7.52366 7.39984 7.40008C7.64817 7.15027 7.78756 6.81233 7.78756 6.46008C7.78756 6.10783 7.64817 5.7699 7.39984 5.52008L6.45317 4.57341C6.1981 4.35498 5.87 4.24084 5.53443 4.2538C5.19886 4.26676 4.88055 4.40587 4.64309 4.64333C4.40563 4.88079 4.26652 5.19911 4.25356 5.53468C4.24059 5.87024 4.35474 6.19835 4.57317 6.45341L5.51984 7.40008ZM21.5198 7.78675C21.8696 7.78528 22.2048 7.64641 22.4532 7.40008L23.3998 6.45341C23.5394 6.33389 23.6528 6.18679 23.7328 6.02138C23.8128 5.85596 23.8578 5.67578 23.8649 5.49215C23.872 5.30853 23.8411 5.12542 23.774 4.95432C23.707 4.78322 23.6053 4.62782 23.4754 4.49788C23.3454 4.36794 23.19 4.26626 23.0189 4.19923C22.8478 4.1322 22.6647 4.10126 22.4811 4.10835C22.2975 4.11544 22.1173 4.16042 21.9519 4.24045C21.7865 4.32048 21.6394 4.43384 21.5198 4.57341L20.6665 5.52008C20.4182 5.7699 20.2788 6.10783 20.2788 6.46008C20.2788 6.81233 20.4182 7.15027 20.6665 7.40008C20.9016 7.6339 21.2153 7.77175 21.5465 7.78675H21.5198ZM25.9998 12.6667H24.6665C24.3129 12.6667 23.9737 12.8072 23.7237 13.0573C23.4736 13.3073 23.3332 13.6465 23.3332 14.0001C23.3332 14.3537 23.4736 14.6928 23.7237 14.9429C23.9737 15.1929 24.3129 15.3334 24.6665 15.3334H25.9998C26.3535 15.3334 26.6926 15.1929 26.9426 14.9429C27.1927 14.6928 27.3332 14.3537 27.3332 14.0001C27.3332 13.6465 27.1927 13.3073 26.9426 13.0573C26.6926 12.8072 26.3535 12.6667 25.9998 12.6667ZM13.9998 23.3334C13.6462 23.3334 13.3071 23.4739 13.057 23.7239C12.807 23.974 12.6665 24.3131 12.6665 24.6667V26.0001C12.6665 26.3537 12.807 26.6928 13.057 26.9429C13.3071 27.1929 13.6462 27.3334 13.9998 27.3334C14.3535 27.3334 14.6926 27.1929 14.9426 26.9429C15.1927 26.6928 15.3332 26.3537 15.3332 26.0001V24.6667C15.3332 24.3131 15.1927 23.974 14.9426 23.7239C14.6926 23.4739 14.3535 23.3334 13.9998 23.3334ZM22.4798 20.6667C22.2265 20.5258 21.9342 20.4713 21.6471 20.5115C21.36 20.5516 21.0939 20.6842 20.8889 20.8891C20.6839 21.0941 20.5514 21.3603 20.5112 21.6474C20.4711 21.9344 20.5256 22.2268 20.6665 22.4801L21.6132 23.4267C21.863 23.6751 22.2009 23.8145 22.5532 23.8145C22.9054 23.8145 23.2434 23.6751 23.4932 23.4267C23.7415 23.1769 23.8809 22.839 23.8809 22.4867C23.8809 22.1345 23.7415 21.7966 23.4932 21.5467L22.4798 20.6667ZM13.9998 6.66675C12.5494 6.66675 11.1316 7.09684 9.92566 7.90264C8.7197 8.70844 7.77976 9.85374 7.22472 11.1937C6.66968 12.5337 6.52445 14.0082 6.80741 15.4307C7.09037 16.8533 7.7888 18.1599 8.81439 19.1855C9.83997 20.2111 11.1466 20.9095 12.5692 21.1925C13.9917 21.4755 15.4662 21.3302 16.8062 20.7752C18.1462 20.2202 19.2915 19.2802 20.0973 18.0743C20.9031 16.8683 21.3332 15.4505 21.3332 14.0001C21.3296 12.0562 20.5559 10.193 19.1814 8.81853C17.8069 7.44402 15.9437 6.67027 13.9998 6.66675ZM13.9998 18.6667C13.0769 18.6667 12.1746 18.3931 11.4072 17.8803C10.6397 17.3675 10.0416 16.6387 9.6884 15.7859C9.33519 14.9332 9.24277 13.9949 9.42284 13.0897C9.6029 12.1844 10.0474 11.3529 10.7 10.7003C11.3527 10.0476 12.1842 9.60315 13.0894 9.42308C13.9947 9.24302 14.933 9.33543 15.7857 9.68864C16.6384 10.0419 17.3673 10.64 17.88 11.4074C18.3928 12.1748 18.6665 13.0771 18.6665 14.0001C18.6665 15.2378 18.1748 16.4247 17.2997 17.2999C16.4245 18.1751 15.2375 18.6667 13.9998 18.6667Z" fill="#F3B619"/>
</svg>
