<svg width="40" height="40" viewBox="0 0 40 40" fill="none" xmlns="http://www.w3.org/2000/svg">
<path d="M32.7157 6.08344C32.5221 5.92681 32.2958 5.81556 32.0536 5.75788C31.8113 5.70019 31.5592 5.69754 31.3157 5.75011C29.5348 6.12335 27.6963 6.1281 25.9134 5.76408C24.1306 5.40006 22.4411 4.67496 20.9491 3.63344C20.6701 3.4399 20.3386 3.33618 19.9991 3.33618C19.6595 3.33618 19.328 3.4399 19.0491 3.63344C17.557 4.67496 15.8675 5.40006 14.0847 5.76408C12.3018 6.1281 10.4633 6.12335 8.68239 5.75011C8.43895 5.69754 8.18683 5.70019 7.94455 5.75788C7.70228 5.81556 7.47601 5.92681 7.28239 6.08344C7.08902 6.2403 6.93325 6.4385 6.82654 6.66347C6.71983 6.88843 6.66487 7.13445 6.66572 7.38344V19.8001C6.66424 22.1897 7.23368 24.545 8.32661 26.67C9.41955 28.795 11.0044 30.6282 12.9491 32.0168L19.0324 36.3501C19.3147 36.5511 19.6525 36.6591 19.9991 36.6591C20.3456 36.6591 20.6835 36.5511 20.9657 36.3501L27.0491 32.0168C28.9938 30.6282 30.5786 28.795 31.6715 26.67C32.7644 24.545 33.3339 22.1897 33.3324 19.8001V7.38344C33.3332 7.13445 33.2783 6.88843 33.1716 6.66347C33.0649 6.4385 32.9091 6.2403 32.7157 6.08344ZM29.9991 19.8001C30.0003 21.658 29.5579 23.4894 28.7085 25.1418C27.8591 26.7942 26.6273 28.2199 25.1157 29.3001L19.9991 32.9501L14.8824 29.3001C13.3708 28.2199 12.139 26.7942 11.2896 25.1418C10.4402 23.4894 9.99778 21.658 9.99905 19.8001V9.30011C13.4931 9.59916 16.9925 8.78848 19.9991 6.98344C23.0057 8.78848 26.505 9.59916 29.9991 9.30011V19.8001Z" fill="#CB1D1D" fill-opacity="0.7"/>
</svg>
