<svg width="28" height="34" viewBox="0 0 28 34" fill="none" xmlns="http://www.w3.org/2000/svg">
<path d="M26.7157 3.08344C26.5221 2.92681 26.2958 2.81556 26.0536 2.75788C25.8113 2.70019 25.5592 2.69754 25.3157 2.75011C23.5348 3.12335 21.6963 3.1281 19.9134 2.76408C18.1306 2.40006 16.4411 1.67496 14.9491 0.633441C14.6701 0.439895 14.3386 0.336182 13.9991 0.336182C13.6595 0.336182 13.328 0.439895 13.0491 0.633441C11.557 1.67496 9.86751 2.40006 8.08466 2.76408C6.30182 3.1281 4.46333 3.12335 2.68239 2.75011C2.43895 2.69754 2.18683 2.70019 1.94455 2.75788C1.70228 2.81556 1.47601 2.92681 1.28239 3.08344C1.08902 3.2403 0.933255 3.4385 0.826541 3.66347C0.719826 3.88843 0.664873 4.13445 0.66572 4.38344V16.8001C0.664238 19.1897 1.23368 21.545 2.32661 23.67C3.41955 25.795 5.00435 27.6282 6.94905 29.0168L13.0324 33.3501C13.3147 33.5511 13.6525 33.6591 13.9991 33.6591C14.3456 33.6591 14.6835 33.5511 14.9657 33.3501L21.0491 29.0168C22.9938 27.6282 24.5786 25.795 25.6715 23.67C26.7644 21.545 27.3339 19.1897 27.3324 16.8001V4.38344C27.3332 4.13445 27.2783 3.88843 27.1716 3.66347C27.0649 3.4385 26.9091 3.2403 26.7157 3.08344ZM23.9991 16.8001C24.0003 18.658 23.5579 20.4894 22.7085 22.1418C21.8591 23.7942 20.6273 25.2199 19.1157 26.3001L13.9991 29.9501L8.88239 26.3001C7.37078 25.2199 6.13903 23.7942 5.28964 22.1418C4.44024 20.4894 3.99778 18.658 3.99905 16.8001V6.30011C7.4931 6.59916 10.9925 5.78848 13.9991 3.98344C17.0057 5.78848 20.505 6.59916 23.9991 6.30011V16.8001Z" fill="#CB1D1D" fill-opacity="0.7"/>
</svg>
