<svg width="28" height="22" viewBox="0 0 28 22" fill="none" xmlns="http://www.w3.org/2000/svg">
<path d="M14.5732 0.466547C14.3566 0.372869 14.1191 0.338322 13.8849 0.366432C13.6506 0.394541 13.4281 0.484299 13.2398 0.626546L6.8665 5.66655H1.99984C1.64622 5.66655 1.30708 5.80702 1.05703 6.05707C0.80698 6.30712 0.666504 6.64626 0.666504 6.99988V14.9999C0.666504 15.3535 0.80698 15.6926 1.05703 15.9427C1.30708 16.1927 1.64622 16.3332 1.99984 16.3332H6.8665L13.1732 21.3732C13.4078 21.5614 13.6991 21.6648 13.9998 21.6665C14.199 21.6698 14.3959 21.624 14.5732 21.5332C14.8001 21.4251 14.9918 21.2552 15.1263 21.0428C15.2607 20.8305 15.3325 20.5845 15.3332 20.3332V1.66655C15.3325 1.41523 15.2607 1.16923 15.1263 0.956918C14.9918 0.744602 14.8001 0.574611 14.5732 0.466547ZM12.6665 17.5599L8.15984 13.9599C7.92525 13.7717 7.63392 13.6683 7.33317 13.6665H3.33317V8.33321H7.33317C7.63392 8.33147 7.92525 8.22809 8.15984 8.03988L12.6665 4.43988V17.5599ZM24.5465 10.9999L26.9465 8.61321C27.0708 8.48889 27.1694 8.34131 27.2367 8.17888C27.304 8.01645 27.3386 7.84236 27.3386 7.66655C27.3386 7.49073 27.304 7.31664 27.2367 7.15421C27.1694 6.99178 27.0708 6.8442 26.9465 6.71988C26.8222 6.59556 26.6746 6.49695 26.5122 6.42967C26.3497 6.36239 26.1756 6.32776 25.9998 6.32776C25.824 6.32776 25.6499 6.36239 25.4875 6.42967C25.3251 6.49695 25.1775 6.59556 25.0532 6.71988L22.6665 9.11988L20.2798 6.71988C20.0288 6.46881 19.6882 6.32776 19.3332 6.32776C18.9781 6.32776 18.6376 6.46881 18.3865 6.71988C18.1354 6.97095 17.9944 7.31148 17.9944 7.66655C17.9944 8.02162 18.1354 8.36214 18.3865 8.61321L20.7865 10.9999L18.3865 13.3865C18.2615 13.5105 18.1623 13.658 18.0947 13.8204C18.027 13.9829 17.9921 14.1572 17.9921 14.3332C17.9921 14.5092 18.027 14.6835 18.0947 14.846C18.1623 15.0085 18.2615 15.1559 18.3865 15.2799C18.5105 15.4049 18.6579 15.504 18.8204 15.5717C18.9829 15.6394 19.1572 15.6743 19.3332 15.6743C19.5092 15.6743 19.6835 15.6394 19.8459 15.5717C20.0084 15.504 20.1559 15.4049 20.2798 15.2799L22.6665 12.8799L25.0532 15.2799C25.1771 15.4049 25.3246 15.504 25.4871 15.5717C25.6495 15.6394 25.8238 15.6743 25.9998 15.6743C26.1759 15.6743 26.3501 15.6394 26.5126 15.5717C26.6751 15.504 26.8226 15.4049 26.9465 15.2799C27.0715 15.1559 27.1707 15.0085 27.2384 14.846C27.3061 14.6835 27.3409 14.5092 27.3409 14.3332C27.3409 14.1572 27.3061 13.9829 27.2384 13.8204C27.1707 13.658 27.0715 13.5105 26.9465 13.3865L24.5465 10.9999Z" fill="#4AC120"/>
</svg>
