<svg width="24" height="30" viewBox="0 0 24 30" fill="none" xmlns="http://www.w3.org/2000/svg">
<path d="M10.0005 19.3733V6.33325C10.0005 5.97963 9.86005 5.64049 9.61 5.39044C9.35995 5.14039 9.02081 4.99992 8.66719 4.99992C8.31357 4.99992 7.97443 5.14039 7.72438 5.39044C7.47433 5.64049 7.33386 5.97963 7.33386 6.33325V19.3733C6.93082 19.6059 6.5957 19.94 6.36179 20.3424C6.12788 20.7447 6.00333 21.2012 6.00053 21.6666C6.00053 22.3738 6.28148 23.0521 6.78157 23.5522C7.28167 24.0523 7.95995 24.3333 8.66719 24.3333C9.37444 24.3333 10.0527 24.0523 10.5528 23.5522C11.0529 23.0521 11.3339 22.3738 11.3339 21.6666C11.331 21.2012 11.2065 20.7447 10.9726 20.3424C10.7387 19.94 10.4036 19.6059 10.0005 19.3733ZM22.0005 2.33325H21.3339V1.66659C21.3339 1.31296 21.1934 0.973825 20.9433 0.723776C20.6933 0.473728 20.3541 0.333252 20.0005 0.333252C19.6469 0.333252 19.3078 0.473728 19.0577 0.723776C18.8077 0.973825 18.6672 1.31296 18.6672 1.66659V2.33325H18.0005C17.6469 2.33325 17.3078 2.47373 17.0577 2.72378C16.8077 2.97382 16.6672 3.31296 16.6672 3.66659C16.6672 4.02021 16.8077 4.35935 17.0577 4.60939C17.3078 4.85944 17.6469 4.99992 18.0005 4.99992H18.6672V5.66659C18.6672 6.02021 18.8077 6.35935 19.0577 6.60939C19.3078 6.85944 19.6469 6.99992 20.0005 6.99992C20.3541 6.99992 20.6933 6.85944 20.9433 6.60939C21.1934 6.35935 21.3339 6.02021 21.3339 5.66659V4.99992H22.0005C22.3541 4.99992 22.6933 4.85944 22.9433 4.60939C23.1934 4.35935 23.3339 4.02021 23.3339 3.66659C23.3339 3.31296 23.1934 2.97382 22.9433 2.72378C22.6933 2.47373 22.3541 2.33325 22.0005 2.33325ZM14.6672 6.33325C14.6672 4.74195 14.0351 3.21583 12.9098 2.09061C11.7846 0.965393 10.2585 0.333252 8.66719 0.333252C7.07589 0.333252 5.54977 0.965393 4.42455 2.09061C3.29933 3.21583 2.66719 4.74195 2.66719 6.33325V16.3333C1.74565 17.3775 1.1127 18.6443 0.830941 20.0082C0.549187 21.3722 0.628396 22.7861 1.06073 24.11C1.49307 25.4339 2.26355 26.6221 3.29596 27.5569C4.32838 28.4917 5.58695 29.1408 6.94719 29.4399C7.50788 29.5679 8.0792 29.6438 8.65386 29.6666C10.2025 29.6764 11.7207 29.2365 13.0242 28.4003C14.3277 27.564 15.3604 26.3675 15.9971 24.9557C16.6338 23.544 16.8471 21.9778 16.611 20.4472C16.3749 18.9167 15.6997 17.4875 14.6672 16.3333V6.33325ZM12.0005 25.8133C11.2983 26.3842 10.4622 26.7671 9.57116 26.9258C8.68009 27.0845 7.76328 27.0138 6.90706 26.7204C6.05084 26.427 5.28338 25.9205 4.67693 25.2486C4.07048 24.5768 3.64499 23.7616 3.44052 22.8799C3.23453 21.9886 3.26124 21.0594 3.5181 20.1814C3.77495 19.3034 4.2533 18.5063 4.90719 17.8666C5.03318 17.7431 5.1334 17.5958 5.20206 17.4333C5.27073 17.2708 5.30646 17.0963 5.30719 16.9199V6.33325C5.30719 5.4492 5.65838 4.60135 6.2835 3.97623C6.90862 3.35111 7.75647 2.99992 8.64052 2.99992C9.52458 2.99992 10.3724 3.35111 10.9975 3.97623C11.6227 4.60135 11.9739 5.4492 11.9739 6.33325V16.9199C11.9746 17.0963 12.0103 17.2708 12.079 17.4333C12.1476 17.5958 12.2479 17.7431 12.3739 17.8666C12.9189 18.3931 13.3454 19.0297 13.6251 19.734C13.9048 20.4382 14.0312 21.194 13.9958 21.951C13.9605 22.7079 13.7643 23.4487 13.4202 24.1239C13.0762 24.799 12.5922 25.3931 12.0005 25.8666V25.8133Z" fill="#F36819"/>
</svg>
